<svg width="24" height="24" viewBox="0 0 24 24" fill="none" xmlns="http://www.w3.org/2000/svg">
<path d="M12.545 12.151C12.545 13.205 13.4 14.06 14.454 14.06H17.99C17.383 16.032 15.889 17.527 13.73 17.926C10.299 18.561 6.86804 16.061 6.54004 12.587C6.20004 8.99201 9.01904 5.96701 12.545 5.96701C13.547 5.96701 14.491 6.21301 15.322 6.64601C16.079 7.04101 17.005 6.88201 17.608 6.27801C18.562 5.32401 18.309 3.71501 17.11 3.09901C15.432 2.23701 13.479 1.83501 11.418 2.06101C6.83504 2.56301 3.10804 6.28701 2.60604 10.87C1.94504 16.9 6.64904 22 12.545 22C18.913 22 21.517 17.485 22.044 13.602C22.286 11.822 20.862 10.25 19.066 10.248L14.456 10.242C13.401 10.24 12.545 11.095 12.545 12.151Z" fill="white"/>
</svg>
