<svg width="35" height="40" viewBox="0 0 35 40" fill="none" xmlns="http://www.w3.org/2000/svg">
<g clip-path="url(#clip0_257_17805)">
<path d="M32.8937 23.8123C28.7318 31.7831 19.7669 40 17.519 40C16.3639 40 13.5061 37.9019 10.4297 34.7969C10.7827 34.9769 11.0757 35.0726 11.2894 35.0726C12.2813 35.0726 15.007 32.9495 17.7256 29.9857C19.9542 32.2843 22.0651 33.8584 22.8985 33.8584C24.349 33.8584 29.8149 28.9401 32.8937 23.8123Z" fill="#B6D69D"/>
<path d="M35.0004 15.5294H34.8299C33.7804 10.1851 28.838 6.14158 22.899 6.14158C21.3332 6.14158 19.8371 6.42406 18.461 6.93661C16.3957 5.66547 13.9341 4.92967 11.29 4.92967C7.88223 4.92967 4.77705 6.15297 2.43555 8.16447C5.4855 3.27581 11.0979 0 17.5196 0C26.8087 0 34.4096 6.85688 35.0004 15.5294Z" fill="#B6D69D"/>
<path d="M34.8298 15.5294H24.3399C23.7539 11.9301 21.5541 8.83652 18.4609 6.93664C19.837 6.42408 21.3332 6.1416 22.899 6.1416C28.838 6.1416 33.7803 10.1851 34.8298 15.5294Z" fill="#7FA65F"/>
<path d="M34.4883 20.0011C34.1137 21.2403 33.5661 22.5229 32.8937 23.8122C29.8149 28.9401 24.349 33.8584 22.8985 33.8584C22.0652 33.8584 19.9542 32.2843 17.7256 29.9857C20.4033 27.0676 23.0738 23.3339 24.0777 20.0011H34.4883Z" fill="#7FA65F"/>
<path d="M10.7589 17.6571C10.7589 21.4728 14.378 26.5414 17.7257 29.9858C15.0072 32.9495 12.2815 35.0726 11.2896 35.0726C11.0759 35.0726 10.7829 34.977 10.4299 34.797C5.49952 29.824 0 22.2701 0 16.6206C0 13.5315 0.888569 10.6407 2.43516 8.1645C4.77666 6.15299 7.88184 4.92969 11.2896 4.92969C13.9337 4.92969 16.3953 5.66549 18.4606 6.93664C13.9505 8.61555 10.7589 12.7821 10.7589 17.6571Z" fill="#CFE7BC"/>
</g>
<defs>
<clipPath id="clip0_257_17805">
<rect width="35" height="40" fill="white"/>
</clipPath>
</defs>
</svg>
