<svg width="73" height="88" viewBox="0 0 73 88" fill="none" xmlns="http://www.w3.org/2000/svg">
<g clip-path="url(#clip0_4_2866)">
<path d="M68.6073 52.387C59.9269 69.9229 41.2286 88 36.5402 88C34.1309 88 28.1703 83.3842 21.7539 76.5533C22.4902 76.9492 23.1013 77.1597 23.5471 77.1597C25.6158 77.1597 31.3009 72.4889 36.971 65.9687C41.6193 71.0254 46.0221 74.4885 47.7602 74.4885C50.7856 74.4885 62.1859 63.6683 68.6073 52.387Z" fill="#B6D69D"/>
<path d="M73 34.1646H72.6444C70.4555 22.4072 60.1472 13.5115 47.7601 13.5115C44.4943 13.5115 41.3737 14.1329 38.5036 15.2606C34.196 12.464 29.0618 10.8453 23.547 10.8453C16.4393 10.8453 9.9628 13.5365 5.0791 17.9618C11.4404 7.20679 23.1463 0 36.5401 0C55.9146 0 71.7679 15.0851 73 34.1646Z" fill="#B6D69D"/>
<path d="M72.6447 34.1646H50.7657C49.5436 26.2461 44.9554 19.4403 38.5039 15.2605C41.374 14.1329 44.4946 13.5115 47.7604 13.5115C60.1474 13.5115 70.4558 22.4072 72.6447 34.1646Z" fill="#7FA65F"/>
<path d="M71.933 44.0025C71.1516 46.7289 70.0095 49.5504 68.607 52.387C62.1856 63.6683 50.7853 74.4885 47.7599 74.4885C46.0218 74.4885 41.619 71.0255 36.9707 65.9687C42.5556 59.5487 48.1256 51.3346 50.2193 44.0025H71.933Z" fill="#7FA65F"/>
<path d="M22.44 38.8455C22.44 47.2401 29.9884 58.391 36.9708 65.9687C31.3007 72.4889 25.6156 77.1598 23.5469 77.1598C23.1011 77.1598 22.49 76.9493 21.7537 76.5533C11.4704 65.6129 0 48.9941 0 36.5652C0 29.7694 1.8533 23.4095 5.07904 17.9619C9.96274 13.5365 16.4393 10.8453 23.5469 10.8453C29.0618 10.8453 34.1959 12.464 38.5036 15.2606C29.0968 18.9542 22.44 28.1205 22.44 38.8455Z" fill="#CFE7BC"/>
</g>
<defs>
<clipPath id="clip0_4_2866">
<rect width="73" height="88" fill="white"/>
</clipPath>
</defs>
</svg>
