<svg width="42" height="48" viewBox="0 0 42 48" fill="none" xmlns="http://www.w3.org/2000/svg">
<g clip-path="url(#clip0_60_46761)">
<path d="M39.4724 28.5747C34.4782 38.1397 23.7202 48 21.0228 48C19.6367 48 16.2073 45.4823 12.5156 41.7563C12.9393 41.9723 13.2908 42.0871 13.5473 42.0871C14.7375 42.0871 18.0084 39.5393 21.2707 35.9829C23.945 38.7411 26.4782 40.6301 27.4782 40.6301C29.2188 40.6301 35.7779 34.7281 39.4724 28.5747Z" fill="#B6D69D"/>
<path d="M41.9997 18.6352H41.7951C40.5357 12.2221 34.6049 7.3699 27.4781 7.3699C25.5991 7.3699 23.8037 7.70887 22.1524 8.32394C19.674 6.79857 16.7201 5.9156 13.5472 5.9156C9.4579 5.9156 5.73167 7.38356 2.92188 9.79737C6.58182 3.93098 13.3167 0 21.0227 0C32.1697 0 41.2907 8.22826 41.9997 18.6352Z" fill="#B6D69D"/>
<path d="M41.795 18.6355H29.2071C28.5039 14.3163 25.8642 10.604 22.1523 8.32416C23.8036 7.70909 25.599 7.37012 27.478 7.37012C34.6048 7.37012 40.5356 12.2223 41.795 18.6355Z" fill="#7FA65F"/>
<path d="M41.3858 24.0015C40.9362 25.4886 40.2792 27.0276 39.4722 28.5748C35.7777 34.7283 29.2186 40.6302 27.478 40.6302C26.478 40.6302 23.9449 38.7413 21.2705 35.983C24.4838 32.4812 27.6884 28.0008 28.893 24.0015H41.3858Z" fill="#7FA65F"/>
<path d="M12.9107 21.1884C12.9107 25.7672 17.2536 31.8496 21.2709 35.9828C18.0086 39.5393 14.7378 42.0871 13.5475 42.0871C13.2911 42.0871 12.9395 41.9723 12.5158 41.7563C6.59942 35.7888 0 26.724 0 19.9446C0 16.2378 1.06628 12.7688 2.92219 9.7973C5.73199 7.38349 9.45821 5.91553 13.5475 5.91553C16.7205 5.91553 19.6744 6.79849 22.1527 8.32387C16.7406 10.3386 12.9107 15.3384 12.9107 21.1884Z" fill="#CFE7BC"/>
</g>
<defs>
<clipPath id="clip0_60_46761">
<rect width="42" height="48" fill="white"/>
</clipPath>
</defs>
</svg>
