<svg width="18" height="15" viewBox="0 0 18 15" fill="none" xmlns="http://www.w3.org/2000/svg">
<path d="M9.19079 2.26679V2.26679C8.7894 2.26195 8.4705 1.93298 8.47533 1.53226C8.48017 1.13107 8.8088 0.812305 9.20924 0.816795M9.19079 2.26679L9.20986 0.816802C9.20966 0.8168 9.20945 0.816797 9.20924 0.816795M9.19079 2.26679H9.19199M9.19079 2.26679H9.19199M9.20924 0.816795H11.292C11.6066 0.816795 11.886 1.02005 11.9869 1.32267L11.9885 1.3277M9.20924 0.816795L11.9885 1.3277M11.9885 1.3277C12.0202 1.36274 12.0651 1.41292 12.1163 1.47248C12.2603 1.37726 12.4318 1.32096 12.617 1.32096H13.7962C13.9681 1.32096 14.1045 1.4574 14.1045 1.62929V2.88346C14.1045 3.05536 13.9681 3.19179 13.7962 3.19179H13.2905C14.0135 4.45888 14.778 6.28853 14.8965 8.56491C15.7076 8.75533 16.3169 9.22236 16.7248 9.64359C16.9353 9.86101 17.0932 10.0674 17.1987 10.2197C17.2515 10.2959 17.2913 10.3587 17.318 10.4027C17.3314 10.4247 17.3415 10.4421 17.3483 10.4541L17.3562 10.468L17.3583 10.4719L17.3589 10.4729L17.3591 10.4733L17.3591 10.4734L17.2712 10.521L17.3592 10.4735L17.3606 10.4762L17.3606 10.4762C17.5006 10.7562 17.4474 11.0903 17.2252 11.3125L16.6002 11.9375C16.5843 11.9534 16.5677 11.9689 16.5501 11.9835C16.5842 12.1402 16.6045 12.3014 16.6045 12.4668C16.6045 13.7804 15.5264 14.8585 14.2128 14.8585C13.1175 14.8585 12.1891 14.1091 11.9103 13.096H7.00449C6.69748 13.096 6.40521 13.0682 6.11936 13.0288C5.86323 14.0742 4.91658 14.8585 3.79616 14.8585C2.4826 14.8585 1.40449 13.7804 1.40449 12.4668C1.40449 11.954 1.56829 11.4793 1.84555 11.0893C1.51371 10.8249 1.24901 10.5833 1.06357 10.4037C0.963822 10.3071 0.886951 10.2284 0.834851 10.1737C0.808799 10.1463 0.788935 10.1249 0.775496 10.1103L0.760183 10.0935L0.756194 10.089L0.755126 10.0878L0.754899 10.0876L0.754825 10.0875L0.754733 10.0874L0.754701 10.0873L0.829492 10.021L11.9885 1.3277ZM9.19199 2.26679H9.19202H9.19204H9.19207H9.19209H9.19211H9.19214H9.19217H9.19219H9.19221H9.19224H9.19227H9.19229H9.19232H9.19234H9.19237H9.19239H9.19242H9.19245H9.19247H9.1925H9.19252H9.19255H9.19258H9.1926H9.19263H9.19266H9.19268H9.19271H9.19274H9.19277H9.19279H9.19282H9.19285H9.19287H9.1929H9.19293H9.19296H9.19298H9.19301H9.19304H9.19307H9.1931H9.19312H9.19315H9.19318H9.19321H9.19324H9.19327H9.1933H9.19332H9.19335H9.19338H9.19341H9.19344H9.19347H9.1935H9.19353H9.19356H9.19359H9.19361H9.19364H9.19367H9.1937H9.19373H9.19376H9.19379H9.19382H9.19385H9.19388H9.19391H9.19394H9.19397H9.194H9.19403H9.19407H9.1941H9.19413H9.19416H9.19419H9.19422H9.19425H9.19428H9.19431H9.19434H9.19437H9.1944H9.19444H9.19447H9.1945H9.19453H9.19456H9.19459H9.19462H9.19466H9.19469H9.19472H9.19475H9.19478H9.19482H9.19485H9.19488H9.19491H9.19494H9.19498H9.19501H9.19504H9.19507H9.19511H9.19514H9.19517H9.1952H9.19524H9.19527H9.1953H9.19534H9.19537H9.1954H9.19543H9.19547H9.1955H9.19553H9.19557H9.1956H9.19563H9.19567H9.1957H9.19573H9.19577H9.1958H9.19584H9.19587H9.1959H9.19594H9.19597H9.196H9.19604H9.19607H9.19611H9.19614H9.19617H9.19621H9.19624H9.19628H9.19631H9.19635H9.19638H9.19641H9.19645H9.19648H9.19652H9.19655H9.19659H9.19662H9.19666H9.19669H9.19672H9.19676H9.19679H9.19683H9.19686H9.1969H9.19693H9.19697H9.197H9.19704H9.19707H9.19711H9.19714H9.19718H9.19722H9.19725H9.19729H9.19732H9.19736H9.19739H9.19743H9.19746H9.1975H9.19753H9.19757H9.19761H9.19764H9.19768H9.19771H9.19775H9.19778H9.19782H9.19785H9.19789H9.19793H9.19796H9.198H9.19803H9.19807H9.19811H9.19814H9.19818H9.19821H9.19825H9.19829H9.19832H9.19836H9.19839H9.19843H9.19847H9.1985H9.19854H9.19857H9.19861H9.19865H9.19868H9.19872H9.19876H9.19879H9.19883H9.19886H9.1989H9.19894H9.19897H9.19901H9.19905H9.19908H9.19912H9.19916H9.19919H9.19923H9.19926H9.1993H9.19934H9.19937H9.19941H9.19945H9.19948H9.19952H9.19956H9.19959H9.19963H9.19967H9.1997H9.19974H9.19978H9.19981H9.19985H9.19989H9.19992H9.19996H9.2H9.20003H9.20007H9.20011H9.20014H9.20018H9.20022H9.20025H9.20029H9.20033H9.20036H9.2004H9.20044H9.20047H9.20051H9.20055H9.20058H9.20062H9.20065H9.20069H9.20073H9.20076H9.2008H9.20084H9.20087H9.20091H9.20095H9.20098H9.20102H9.20106H9.20109H9.20113H9.20117H9.2012H9.20124H9.20128H9.20131H9.20135H9.20139H9.20142H9.20146H9.2015H9.20153H9.20157H9.2016H9.20164H9.20168H9.20171H9.20175H9.20179H9.20182H9.20186H9.2019H9.20193H9.20197H9.202H9.20204H9.20208H9.20211H9.20215H9.20218H9.20222H9.20226H9.20229H9.20233H9.20237H9.2024H9.20244H9.20247H9.20251H9.20255H9.20258H9.20262H9.20265H9.20269H9.20272H9.20276H9.2028H9.20283H9.20287H9.2029H9.20294H9.20298H9.20301H9.20305H9.20308H9.20312H9.20315H9.20319H9.20322H9.20326H9.20329H9.20333H9.20337H9.2034H9.20344H9.20347H9.20351H9.20354H9.20358H9.20361H9.20365H9.20368H9.20372H9.20375H9.20379H9.20382H9.20386H9.20389H9.20393H9.20396H9.20399H9.20403H9.20406H9.2041H9.20413H9.20417H9.2042H9.20424H9.20427H9.20431H9.20434H9.20437H9.20441H9.20444H9.20448H9.20451H9.20455H9.20458H9.20461H9.20465H9.20468H9.20471H9.20475H9.20478H9.20482H9.20485H9.20488H9.20492H9.20495H9.20498H9.20502H9.20505H9.20508H9.20512H9.20515H9.20518H9.20522H9.20525H9.20528H9.20532H9.20535H9.20538H9.20541H9.20545H9.20548H9.20551H9.20554H9.20558H9.20561H9.20564H9.20567H9.20571H9.20574H9.20577H9.2058H9.20584H9.20587H9.2059H9.20593H9.20596H9.20599H9.20603H9.20606H9.20609H9.20612H9.20615H9.20618H9.20621H9.20625H9.20628H9.20631H9.20634H9.20637H9.2064H9.20643H9.20646H9.20649H9.20652H9.20656H9.20659H9.20662H9.20665H9.20668H9.20671H9.20674H9.20677H9.2068H9.20683H9.20686H9.20689H9.20692H9.20695H9.20698H9.20701H9.20704H9.20707H9.2071H9.20712H9.20715H9.20718H9.20721H9.20724H9.20727H9.2073H9.20733H9.20736H9.20738H9.20741H9.20744H9.20747H9.2075H9.20753H9.20755H9.20758H9.20761H9.20764H9.20767H9.20769H9.20772H9.20775H9.20778H9.2078H9.20783H9.20786H9.20789H9.20791H9.20794H9.20797H9.20799H9.20802H9.20805H9.20807H9.2081H9.20813H9.20815H9.20818H9.2082H9.20823H9.20826H9.20828H9.20831H9.20833H9.20836H9.20838H9.20841H9.20844H9.20846H9.20849H9.20851H9.20854H9.20856H9.20859H9.20861H9.20863H9.20866H10.7338C10.9187 2.90071 11.4003 4.68972 11.4003 6.6293C11.4003 7.7145 11.1812 8.39956 10.9267 8.76367C10.7977 8.94822 10.6705 9.06447 10.5325 9.13577C10.3946 9.20703 10.2377 9.23763 10.042 9.23763H7.95866C7.65972 9.23763 7.43366 9.01157 7.43366 8.71263V7.04596C7.43366 6.6449 7.10972 6.32096 6.70866 6.32096H2.54199C2.39715 6.32096 2.25703 6.36436 2.14069 6.44192L2.09616 6.47161M9.19199 2.26679L2.09616 6.47161M2.09616 6.47161V6.4755V6.47161ZM2.52412 5.68763L2.52412 5.68762C2.12273 5.68279 1.80384 5.35381 1.80867 4.95309C1.8135 4.5519 2.14214 4.23313 2.54258 4.23763M2.52412 5.68763L2.5432 4.23764C2.54299 4.23763 2.54279 4.23763 2.54258 4.23763M2.52412 5.68763H2.52533H2.52535H2.52537H2.5254H2.52542H2.52545H2.52547H2.5255H2.52552H2.52555H2.52557H2.5256H2.52563H2.52565H2.52568H2.5257H2.52573H2.52575H2.52578H2.52581H2.52583H2.52586H2.52589H2.52591H2.52594H2.52596H2.52599H2.52602H2.52605H2.52607H2.5261H2.52613H2.52615H2.52618H2.52621H2.52624H2.52626H2.52629H2.52632H2.52635H2.52637H2.5264H2.52643H2.52646H2.52649H2.52652H2.52654H2.52657H2.5266H2.52663H2.52666H2.52669H2.52672H2.52674H2.52677H2.5268H2.52683H2.52686H2.52689H2.52692H2.52695H2.52698H2.52701H2.52704H2.52707H2.5271H2.52713H2.52716H2.52719H2.52722H2.52725H2.52728H2.52731H2.52734H2.52737H2.5274H2.52743H2.52746H2.52749H2.52752H2.52755H2.52758H2.52761H2.52764H2.52768H2.52771H2.52774H2.52777H2.5278H2.52783H2.52786H2.5279H2.52793H2.52796H2.52799H2.52802H2.52805H2.52809H2.52812H2.52815H2.52818H2.52821H2.52825H2.52828H2.52831H2.52834H2.52838H2.52841H2.52844H2.52847H2.52851H2.52854H2.52857H2.5286H2.52864H2.52867H2.5287H2.52874H2.52877H2.5288H2.52883H2.52887H2.5289H2.52893H2.52897H2.529H2.52903H2.52907H2.5291H2.52914H2.52917H2.5292H2.52924H2.52927H2.5293H2.52934H2.52937H2.52941H2.52944H2.52947H2.52951H2.52954H2.52958H2.52961H2.52964H2.52968H2.52971H2.52975H2.52978H2.52982H2.52985H2.52989H2.52992H2.52995H2.52999H2.53002H2.53006H2.53009H2.53013H2.53016H2.5302H2.53023H2.53027H2.5303H2.53034H2.53037H2.53041H2.53044H2.53048H2.53051H2.53055H2.53058H2.53062H2.53065H2.53069H2.53073H2.53076H2.5308H2.53083H2.53087H2.5309H2.53094H2.53097H2.53101H2.53105H2.53108H2.53112H2.53115H2.53119H2.53122H2.53126H2.5313H2.53133H2.53137H2.5314H2.53144H2.53148H2.53151H2.53155H2.53158H2.53162H2.53166H2.53169H2.53173H2.53176H2.5318H2.53184H2.53187H2.53191H2.53194H2.53198H2.53202H2.53205H2.53209H2.53213H2.53216H2.5322H2.53223H2.53227H2.53231H2.53234H2.53238H2.53242H2.53245H2.53249H2.53253H2.53256H2.5326H2.53263H2.53267H2.53271H2.53274H2.53278H2.53282H2.53285H2.53289H2.53293H2.53296H2.533H2.53304H2.53307H2.53311H2.53315H2.53318H2.53322H2.53326H2.53329H2.53333H2.53337H2.5334H2.53344H2.53348H2.53351H2.53355H2.53359H2.53362H2.53366H2.5337H2.53373H2.53377H2.53381H2.53384H2.53388H2.53392H2.53395H2.53399H2.53403H2.53406H2.5341H2.53413H2.53417H2.53421H2.53424H2.53428H2.53432H2.53435H2.53439H2.53443H2.53446H2.5345H2.53454H2.53457H2.53461H2.53465H2.53468H2.53472H2.53476H2.53479H2.53483H2.53487H2.5349H2.53494H2.53497H2.53501H2.53505H2.53508H2.53512H2.53516H2.53519H2.53523H2.53526H2.5353H2.53534H2.53537H2.53541H2.53545H2.53548H2.53552H2.53555H2.53559H2.53563H2.53566H2.5357H2.53573H2.53577H2.53581H2.53584H2.53588H2.53591H2.53595H2.53599H2.53602H2.53606H2.53609H2.53613H2.53617H2.5362H2.53624H2.53627H2.53631H2.53634H2.53638H2.53641H2.53645H2.53649H2.53652H2.53656H2.53659H2.53663H2.53666H2.5367H2.53673H2.53677H2.5368H2.53684H2.53687H2.53691H2.53694H2.53698H2.53701H2.53705H2.53708H2.53712H2.53715H2.53719H2.53722H2.53726H2.53729H2.53733H2.53736H2.5374H2.53743H2.53747H2.5375H2.53754H2.53757H2.5376H2.53764H2.53767H2.53771H2.53774H2.53778H2.53781H2.53784H2.53788H2.53791H2.53795H2.53798H2.53801H2.53805H2.53808H2.53812H2.53815H2.53818H2.53822H2.53825H2.53828H2.53832H2.53835H2.53838H2.53842H2.53845H2.53848H2.53852H2.53855H2.53858H2.53862H2.53865H2.53868H2.53871H2.53875H2.53878H2.53881H2.53885H2.53888H2.53891H2.53894H2.53898H2.53901H2.53904H2.53907H2.5391H2.53914H2.53917H2.5392H2.53923H2.53926H2.5393H2.53933H2.53936H2.53939H2.53942H2.53945H2.53949H2.53952H2.53955H2.53958H2.53961H2.53964H2.53967H2.5397H2.53973H2.53977H2.5398H2.53983H2.53986H2.53989H2.53992H2.53995H2.53998H2.54001H2.54004H2.54007H2.5401H2.54013H2.54016H2.54019H2.54022H2.54025H2.54028H2.54031H2.54034H2.54037H2.5404H2.54043H2.54046H2.54049H2.54052H2.54054H2.54057H2.5406H2.54063H2.54066H2.54069H2.54072H2.54075H2.54077H2.5408H2.54083H2.54086H2.54089H2.54092H2.54094H2.54097H2.541H2.54103H2.54105H2.54108H2.54111H2.54114H2.54116H2.54119H2.54122H2.54125H2.54127H2.5413H2.54133H2.54135H2.54138H2.54141H2.54143H2.54146H2.54149H2.54151H2.54154H2.54156H2.54159H2.54162H2.54164H2.54167H2.54169H2.54172H2.54174H2.54177H2.54179H2.54182H2.54184H2.54187H2.54189H2.54192H2.54194H2.54197H2.54199H6.70807M2.52412 5.68763H6.70807M2.54258 4.23763H6.70866H6.70868H6.70871H6.70873H6.70876H6.70878H6.70881H6.70883H6.70886H6.70888H6.70891H6.70893H6.70896H6.70898H6.70901H6.70904H6.70906H6.70909H6.70911H6.70914H6.70917H6.70919H6.70922H6.70925H6.70927H6.7093H6.70932H6.70935H6.70938H6.70941H6.70943H6.70946H6.70949H6.70951H6.70954H6.70957H6.7096H6.70962H6.70965H6.70968H6.70971H6.70974H6.70976H6.70979H6.70982H6.70985H6.70988H6.70991H6.70993H6.70996H6.70999H6.71002H6.71005H6.71008H6.71011H6.71014H6.71017H6.71019H6.71022H6.71025H6.71028H6.71031H6.71034H6.71037H6.7104H6.71043H6.71046H6.71049H6.71052H6.71055H6.71058H6.71061H6.71064H6.71067H6.7107H6.71073H6.71076H6.71079H6.71082H6.71086H6.71089H6.71092H6.71095H6.71098H6.71101H6.71104H6.71107H6.7111H6.71113H6.71117H6.7112H6.71123H6.71126H6.71129H6.71132H6.71136H6.71139H6.71142H6.71145H6.71148H6.71152H6.71155H6.71158H6.71161H6.71164H6.71168H6.71171H6.71174H6.71177H6.71181H6.71184H6.71187H6.7119H6.71194H6.71197H6.712H6.71204H6.71207H6.7121H6.71213H6.71217H6.7122H6.71223H6.71227H6.7123H6.71233H6.71237H6.7124H6.71244H6.71247H6.7125H6.71254H6.71257H6.7126H6.71264H6.71267H6.71271H6.71274H6.71277H6.71281H6.71284H6.71288H6.71291H6.71294H6.71298H6.71301H6.71305H6.71308H6.71312H6.71315H6.71318H6.71322H6.71325H6.71329H6.71332H6.71336H6.71339H6.71343H6.71346H6.7135H6.71353H6.71357H6.7136H6.71364H6.71367H6.71371H6.71374H6.71378H6.71381H6.71385H6.71388H6.71392H6.71395H6.71399H6.71402H6.71406H6.71409H6.71413H6.71417H6.7142H6.71424H6.71427H6.71431H6.71434H6.71438H6.71441H6.71445H6.71449H6.71452H6.71456H6.71459H6.71463H6.71466H6.7147H6.71474H6.71477H6.71481H6.71484H6.71488H6.71492H6.71495H6.71499H6.71502H6.71506H6.7151H6.71513H6.71517H6.71521H6.71524H6.71528H6.71531H6.71535H6.71539H6.71542H6.71546H6.7155H6.71553H6.71557H6.7156H6.71564H6.71568H6.71571H6.71575H6.71579H6.71582H6.71586H6.7159H6.71593H6.71597H6.716H6.71604H6.71608H6.71611H6.71615H6.71619H6.71622H6.71626H6.7163H6.71633H6.71637H6.71641H6.71644H6.71648H6.71652H6.71655H6.71659H6.71663H6.71666H6.7167H6.71674H6.71677H6.71681H6.71685H6.71688H6.71692H6.71696H6.71699H6.71703H6.71707H6.7171H6.71714H6.71718H6.71721H6.71725H6.71729H6.71732H6.71736H6.7174H6.71743H6.71747H6.7175H6.71754H6.71758H6.71761H6.71765H6.71769H6.71772H6.71776H6.7178H6.71783H6.71787H6.71791H6.71794H6.71798H6.71802H6.71805H6.71809H6.71813H6.71816H6.7182H6.71824H6.71827H6.71831H6.71834H6.71838H6.71842H6.71845H6.71849H6.71853H6.71856H6.7186H6.71863H6.71867H6.71871H6.71874H6.71878H6.71882H6.71885H6.71889H6.71892H6.71896H6.719H6.71903H6.71907H6.7191H6.71914H6.71918H6.71921H6.71925H6.71928H6.71932H6.71936H6.71939H6.71943H6.71946H6.7195H6.71953H6.71957H6.71961H6.71964H6.71968H6.71971H6.71975H6.71978H6.71982H6.71985H6.71989H6.71993H6.71996H6.72H6.72003H6.72007H6.7201H6.72014H6.72017H6.72021H6.72024H6.72028H6.72031H6.72035H6.72038H6.72042H6.72045H6.72049H6.72052H6.72056H6.72059H6.72063H6.72066H6.7207H6.72073H6.72077H6.7208H6.72083H6.72087H6.7209H6.72094H6.72097H6.72101H6.72104H6.72108H6.72111H6.72114H6.72118H6.72121H6.72125H6.72128H6.72131H6.72135H6.72138H6.72142H6.72145H6.72148H6.72152H6.72155H6.72158H6.72162H6.72165H6.72168H6.72172H6.72175H6.72178H6.72182H6.72185H6.72188H6.72192H6.72195H6.72198H6.72201H6.72205H6.72208H6.72211H6.72215H6.72218H6.72221H6.72224H6.72228H6.72231H6.72234H6.72237H6.7224H6.72244H6.72247H6.7225H6.72253H6.72257H6.7226H6.72263H6.72266H6.72269H6.72272H6.72276H6.72279H6.72282H6.72285H6.72288H6.72291H6.72294H6.72298H6.72301H6.72304H6.72307H6.7231H6.72313H6.72316H6.72319H6.72322H6.72325H6.72328H6.72331H6.72334H6.72337H6.7234H6.72343H6.72346H6.72349H6.72352H6.72355H6.72358H6.72361H6.72364H6.72367H6.7237H6.72373H6.72376H6.72379H6.72382H6.72385H6.72388H6.72391H6.72394H6.72396H6.72399H6.72402H6.72405H6.72408H6.72411H6.72414H6.72416H6.72419H6.72422H6.72425H6.72428H6.7243H6.72433H6.72436H6.72439H6.72442H6.72444H6.72447H6.7245H6.72452H6.72455H6.72458H6.72461H6.72463H6.72466H6.72469H6.72471H6.72474H6.72477H6.72479H6.72482H6.72484H6.72487H6.7249H6.72492H6.72495H6.72497H6.725H6.72503H6.72505H6.72508H6.7251H6.72513H6.72515H6.72518H6.7252H6.72523H6.72525H6.72528H6.7253H6.72533H6.72653V4.23764C7.12792 4.24247 7.44681 4.57144 7.44199 4.97217C7.43715 5.37335 7.10851 5.69212 6.70807 5.68763M2.54258 4.23763L6.70807 5.68763M6.70807 5.68763C6.70786 5.68763 6.70766 5.68762 6.70745 5.68762L6.70866 5.58763V5.68763H6.70807ZM2.81721 7.77096H5.98366V8.71263C5.98366 9.79702 6.87426 10.6876 7.95866 10.6876H10.042C10.8363 10.6876 11.6216 10.3099 12.12 9.59041C12.6153 8.87553 12.8503 7.89417 12.8503 6.6293C12.8503 6.31016 12.832 5.99421 12.8053 5.68293C13.1887 6.67129 13.4837 7.80184 13.4837 9.1293C13.4837 9.53036 13.8076 9.8543 14.2087 9.8543C15.0113 9.8543 15.4731 10.3303 15.7392 10.696H14.0753C13.0102 10.696 12.4675 11.2658 12.1835 11.6418H7.00033C5.69495 11.6418 4.52508 11.1267 3.64219 10.5702C2.81655 10.0499 2.24816 9.49733 2.06299 9.30958C2.169 8.35711 2.65053 7.90133 2.81721 7.77096ZM3.03609 11.9185C3.52774 12.2121 4.09158 12.4827 4.70232 12.692C4.60341 13.1066 4.23784 13.4085 3.79199 13.4085C3.26389 13.4085 2.85033 12.9949 2.85033 12.4668C2.85033 12.258 2.92125 12.0739 3.03609 11.9185ZM14.0753 12.1501H15.0882C15.1273 12.2504 15.1503 12.3525 15.1503 12.4668C15.1503 12.9949 14.7368 13.4085 14.2087 13.4085C13.6939 13.4085 13.3203 13.0421 13.2739 12.5566C13.4148 12.3844 13.6777 12.1501 14.0753 12.1501Z" fill="#7FA65F" stroke="#7FA65F" stroke-width="0.2"/>
</svg>
