<svg width="20" height="20" viewBox="0 0 20 20" fill="none" xmlns="http://www.w3.org/2000/svg">
<path d="M10.1908 4.26667V4.26667C9.7894 4.26183 9.4705 3.93286 9.47533 3.53213C9.48017 3.13095 9.8088 2.81218 10.2092 2.81667M10.1908 4.26667L10.2099 2.81668C10.2097 2.81668 10.2094 2.81668 10.2092 2.81667M10.1908 4.26667H10.192M10.1908 4.26667H10.192M10.2092 2.81667H12.292C12.6066 2.81667 12.886 3.01993 12.9869 3.32255L12.9885 3.32758M10.2092 2.81667L12.9885 3.32758M12.9885 3.32758C13.0202 3.36262 13.0651 3.4128 13.1163 3.47236C13.2603 3.37714 13.4318 3.32084 13.617 3.32084H14.7962C14.9681 3.32084 15.1045 3.45728 15.1045 3.62917V4.88334C15.1045 5.05523 14.9681 5.19167 14.7962 5.19167H14.2905C15.0135 6.45876 15.778 8.28841 15.8965 10.5648C16.7076 10.7552 17.3169 11.2222 17.7248 11.6435C17.9353 11.8609 18.0932 12.0673 18.1987 12.2196C18.2515 12.2958 18.2913 12.3585 18.318 12.4026C18.3314 12.4246 18.3415 12.442 18.3483 12.454L18.3562 12.4679L18.3583 12.4717L18.3589 12.4728L18.3591 12.4732L18.3591 12.4733L18.2712 12.5208L18.3592 12.4734L18.3606 12.4761L18.3606 12.4761C18.5006 12.7561 18.4474 13.0902 18.2252 13.3124L17.6002 13.9374C17.5843 13.9533 17.5677 13.9687 17.5501 13.9834C17.5842 14.1401 17.6045 14.3013 17.6045 14.4667C17.6045 15.7802 16.5264 16.8583 15.2128 16.8583C14.1175 16.8583 13.1891 16.109 12.9103 15.0958H8.00449C7.69748 15.0958 7.40521 15.0681 7.11936 15.0287C6.86323 16.0741 5.91658 16.8583 4.79616 16.8583C3.4826 16.8583 2.40449 15.7802 2.40449 14.4667C2.40449 13.9539 2.56829 13.4792 2.84555 13.0892C2.51371 12.8247 2.24901 12.5832 2.06357 12.4036C1.96382 12.307 1.88695 12.2283 1.83485 12.1736C1.8088 12.1462 1.78894 12.1248 1.7755 12.1102L1.76018 12.0933L1.75619 12.0889L1.75513 12.0877L1.7549 12.0874L1.75482 12.0874L1.75473 12.0873L1.7547 12.0872L1.82949 12.0208L12.9885 3.32758ZM10.192 4.26667H10.192H10.192H10.1921H10.1921H10.1921H10.1921H10.1922H10.1922H10.1922H10.1922H10.1923H10.1923H10.1923H10.1923H10.1924H10.1924H10.1924H10.1924H10.1925H10.1925H10.1925H10.1926H10.1926H10.1926H10.1926H10.1927H10.1927H10.1927H10.1927H10.1928H10.1928H10.1928H10.1928H10.1929H10.1929H10.1929H10.193H10.193H10.193H10.193H10.1931H10.1931H10.1931H10.1932H10.1932H10.1932H10.1932H10.1933H10.1933H10.1933H10.1934H10.1934H10.1934H10.1934H10.1935H10.1935H10.1935H10.1936H10.1936H10.1936H10.1936H10.1937H10.1937H10.1937H10.1938H10.1938H10.1938H10.1939H10.1939H10.1939H10.1939H10.194H10.194H10.194H10.1941H10.1941H10.1941H10.1942H10.1942H10.1942H10.1942H10.1943H10.1943H10.1943H10.1944H10.1944H10.1944H10.1945H10.1945H10.1945H10.1946H10.1946H10.1946H10.1947H10.1947H10.1947H10.1948H10.1948H10.1948H10.1948H10.1949H10.1949H10.1949H10.195H10.195H10.195H10.1951H10.1951H10.1951H10.1952H10.1952H10.1952H10.1953H10.1953H10.1953H10.1954H10.1954H10.1954H10.1955H10.1955H10.1955H10.1956H10.1956H10.1956H10.1957H10.1957H10.1957H10.1958H10.1958H10.1958H10.1959H10.1959H10.1959H10.196H10.196H10.196H10.1961H10.1961H10.1961H10.1962H10.1962H10.1962H10.1963H10.1963H10.1963H10.1964H10.1964H10.1964H10.1965H10.1965H10.1966H10.1966H10.1966H10.1967H10.1967H10.1967H10.1968H10.1968H10.1968H10.1969H10.1969H10.1969H10.197H10.197H10.197H10.1971H10.1971H10.1971H10.1972H10.1972H10.1973H10.1973H10.1973H10.1974H10.1974H10.1974H10.1975H10.1975H10.1975H10.1976H10.1976H10.1976H10.1977H10.1977H10.1977H10.1978H10.1978H10.1979H10.1979H10.1979H10.198H10.198H10.198H10.1981H10.1981H10.1981H10.1982H10.1982H10.1982H10.1983H10.1983H10.1984H10.1984H10.1984H10.1985H10.1985H10.1985H10.1986H10.1986H10.1986H10.1987H10.1987H10.1988H10.1988H10.1988H10.1989H10.1989H10.1989H10.199H10.199H10.199H10.1991H10.1991H10.1992H10.1992H10.1992H10.1993H10.1993H10.1993H10.1994H10.1994H10.1994H10.1995H10.1995H10.1996H10.1996H10.1996H10.1997H10.1997H10.1997H10.1998H10.1998H10.1998H10.1999H10.1999H10.2H10.2H10.2H10.2001H10.2001H10.2001H10.2002H10.2002H10.2003H10.2003H10.2003H10.2004H10.2004H10.2004H10.2005H10.2005H10.2005H10.2006H10.2006H10.2007H10.2007H10.2007H10.2008H10.2008H10.2008H10.2009H10.2009H10.2009H10.201H10.201H10.2011H10.2011H10.2011H10.2012H10.2012H10.2012H10.2013H10.2013H10.2013H10.2014H10.2014H10.2015H10.2015H10.2015H10.2016H10.2016H10.2016H10.2017H10.2017H10.2017H10.2018H10.2018H10.2019H10.2019H10.2019H10.202H10.202H10.202H10.2021H10.2021H10.2021H10.2022H10.2022H10.2023H10.2023H10.2023H10.2024H10.2024H10.2024H10.2025H10.2025H10.2025H10.2026H10.2026H10.2027H10.2027H10.2027H10.2028H10.2028H10.2028H10.2029H10.2029H10.2029H10.203H10.203H10.203H10.2031H10.2031H10.2032H10.2032H10.2032H10.2033H10.2033H10.2033H10.2034H10.2034H10.2034H10.2035H10.2035H10.2035H10.2036H10.2036H10.2036H10.2037H10.2037H10.2038H10.2038H10.2038H10.2039H10.2039H10.2039H10.204H10.204H10.204H10.2041H10.2041H10.2041H10.2042H10.2042H10.2042H10.2043H10.2043H10.2043H10.2044H10.2044H10.2044H10.2045H10.2045H10.2045H10.2046H10.2046H10.2046H10.2047H10.2047H10.2047H10.2048H10.2048H10.2048H10.2049H10.2049H10.205H10.205H10.205H10.2051H10.2051H10.2051H10.2051H10.2052H10.2052H10.2052H10.2053H10.2053H10.2053H10.2054H10.2054H10.2054H10.2055H10.2055H10.2055H10.2056H10.2056H10.2056H10.2057H10.2057H10.2057H10.2058H10.2058H10.2058H10.2059H10.2059H10.2059H10.206H10.206H10.206H10.2061H10.2061H10.2061H10.2062H10.2062H10.2062H10.2062H10.2063H10.2063H10.2063H10.2064H10.2064H10.2064H10.2065H10.2065H10.2065H10.2066H10.2066H10.2066H10.2066H10.2067H10.2067H10.2067H10.2068H10.2068H10.2068H10.2069H10.2069H10.2069H10.2069H10.207H10.207H10.207H10.2071H10.2071H10.2071H10.2072H10.2072H10.2072H10.2072H10.2073H10.2073H10.2073H10.2074H10.2074H10.2074H10.2074H10.2075H10.2075H10.2075H10.2076H10.2076H10.2076H10.2076H10.2077H10.2077H10.2077H10.2077H10.2078H10.2078H10.2078H10.2079H10.2079H10.2079H10.2079H10.208H10.208H10.208H10.208H10.2081H10.2081H10.2081H10.2082H10.2082H10.2082H10.2082H10.2083H10.2083H10.2083H10.2083H10.2084H10.2084H10.2084H10.2084H10.2085H10.2085H10.2085H10.2085H10.2086H10.2086H10.2086H10.2086H10.2087H11.7338C11.9187 4.90059 12.4003 6.6896 12.4003 8.62917C12.4003 9.71438 12.1812 10.3994 11.9267 10.7636C11.7977 10.9481 11.6705 11.0643 11.5325 11.1356C11.3946 11.2069 11.2377 11.2375 11.042 11.2375H8.95866C8.65972 11.2375 8.43366 11.0114 8.43366 10.7125V9.04584C8.43366 8.64478 8.10972 8.32084 7.70866 8.32084H3.54199C3.39715 8.32084 3.25703 8.36424 3.14069 8.4418L3.09616 8.47149M10.192 4.26667L3.09616 8.47149M3.09616 8.47149V8.47537V8.47149ZM3.52412 7.68751L3.52412 7.6875C3.12273 7.68266 2.80384 7.35369 2.80867 6.95297C2.8135 6.55178 3.14214 6.23301 3.54258 6.23751M3.52412 7.68751L3.5432 6.23751C3.54299 6.23751 3.54279 6.23751 3.54258 6.23751M3.52412 7.68751H3.52533H3.52535H3.52537H3.5254H3.52542H3.52545H3.52547H3.5255H3.52552H3.52555H3.52557H3.5256H3.52563H3.52565H3.52568H3.5257H3.52573H3.52575H3.52578H3.52581H3.52583H3.52586H3.52589H3.52591H3.52594H3.52596H3.52599H3.52602H3.52605H3.52607H3.5261H3.52613H3.52615H3.52618H3.52621H3.52624H3.52626H3.52629H3.52632H3.52635H3.52637H3.5264H3.52643H3.52646H3.52649H3.52652H3.52654H3.52657H3.5266H3.52663H3.52666H3.52669H3.52672H3.52674H3.52677H3.5268H3.52683H3.52686H3.52689H3.52692H3.52695H3.52698H3.52701H3.52704H3.52707H3.5271H3.52713H3.52716H3.52719H3.52722H3.52725H3.52728H3.52731H3.52734H3.52737H3.5274H3.52743H3.52746H3.52749H3.52752H3.52755H3.52758H3.52761H3.52764H3.52768H3.52771H3.52774H3.52777H3.5278H3.52783H3.52786H3.5279H3.52793H3.52796H3.52799H3.52802H3.52805H3.52809H3.52812H3.52815H3.52818H3.52821H3.52825H3.52828H3.52831H3.52834H3.52838H3.52841H3.52844H3.52847H3.52851H3.52854H3.52857H3.5286H3.52864H3.52867H3.5287H3.52874H3.52877H3.5288H3.52883H3.52887H3.5289H3.52893H3.52897H3.529H3.52903H3.52907H3.5291H3.52914H3.52917H3.5292H3.52924H3.52927H3.5293H3.52934H3.52937H3.52941H3.52944H3.52947H3.52951H3.52954H3.52958H3.52961H3.52964H3.52968H3.52971H3.52975H3.52978H3.52982H3.52985H3.52989H3.52992H3.52995H3.52999H3.53002H3.53006H3.53009H3.53013H3.53016H3.5302H3.53023H3.53027H3.5303H3.53034H3.53037H3.53041H3.53044H3.53048H3.53051H3.53055H3.53058H3.53062H3.53065H3.53069H3.53073H3.53076H3.5308H3.53083H3.53087H3.5309H3.53094H3.53097H3.53101H3.53105H3.53108H3.53112H3.53115H3.53119H3.53122H3.53126H3.5313H3.53133H3.53137H3.5314H3.53144H3.53148H3.53151H3.53155H3.53158H3.53162H3.53166H3.53169H3.53173H3.53176H3.5318H3.53184H3.53187H3.53191H3.53194H3.53198H3.53202H3.53205H3.53209H3.53213H3.53216H3.5322H3.53223H3.53227H3.53231H3.53234H3.53238H3.53242H3.53245H3.53249H3.53253H3.53256H3.5326H3.53263H3.53267H3.53271H3.53274H3.53278H3.53282H3.53285H3.53289H3.53293H3.53296H3.533H3.53304H3.53307H3.53311H3.53315H3.53318H3.53322H3.53326H3.53329H3.53333H3.53337H3.5334H3.53344H3.53348H3.53351H3.53355H3.53359H3.53362H3.53366H3.5337H3.53373H3.53377H3.53381H3.53384H3.53388H3.53392H3.53395H3.53399H3.53403H3.53406H3.5341H3.53413H3.53417H3.53421H3.53424H3.53428H3.53432H3.53435H3.53439H3.53443H3.53446H3.5345H3.53454H3.53457H3.53461H3.53465H3.53468H3.53472H3.53476H3.53479H3.53483H3.53487H3.5349H3.53494H3.53497H3.53501H3.53505H3.53508H3.53512H3.53516H3.53519H3.53523H3.53526H3.5353H3.53534H3.53537H3.53541H3.53545H3.53548H3.53552H3.53555H3.53559H3.53563H3.53566H3.5357H3.53573H3.53577H3.53581H3.53584H3.53588H3.53591H3.53595H3.53599H3.53602H3.53606H3.53609H3.53613H3.53617H3.5362H3.53624H3.53627H3.53631H3.53634H3.53638H3.53641H3.53645H3.53649H3.53652H3.53656H3.53659H3.53663H3.53666H3.5367H3.53673H3.53677H3.5368H3.53684H3.53687H3.53691H3.53694H3.53698H3.53701H3.53705H3.53708H3.53712H3.53715H3.53719H3.53722H3.53726H3.53729H3.53733H3.53736H3.5374H3.53743H3.53747H3.5375H3.53754H3.53757H3.5376H3.53764H3.53767H3.53771H3.53774H3.53778H3.53781H3.53784H3.53788H3.53791H3.53795H3.53798H3.53801H3.53805H3.53808H3.53812H3.53815H3.53818H3.53822H3.53825H3.53828H3.53832H3.53835H3.53838H3.53842H3.53845H3.53848H3.53852H3.53855H3.53858H3.53862H3.53865H3.53868H3.53871H3.53875H3.53878H3.53881H3.53885H3.53888H3.53891H3.53894H3.53898H3.53901H3.53904H3.53907H3.5391H3.53914H3.53917H3.5392H3.53923H3.53926H3.5393H3.53933H3.53936H3.53939H3.53942H3.53945H3.53949H3.53952H3.53955H3.53958H3.53961H3.53964H3.53967H3.5397H3.53973H3.53977H3.5398H3.53983H3.53986H3.53989H3.53992H3.53995H3.53998H3.54001H3.54004H3.54007H3.5401H3.54013H3.54016H3.54019H3.54022H3.54025H3.54028H3.54031H3.54034H3.54037H3.5404H3.54043H3.54046H3.54049H3.54052H3.54054H3.54057H3.5406H3.54063H3.54066H3.54069H3.54072H3.54075H3.54077H3.5408H3.54083H3.54086H3.54089H3.54092H3.54094H3.54097H3.541H3.54103H3.54105H3.54108H3.54111H3.54114H3.54116H3.54119H3.54122H3.54125H3.54127H3.5413H3.54133H3.54135H3.54138H3.54141H3.54143H3.54146H3.54149H3.54151H3.54154H3.54156H3.54159H3.54162H3.54164H3.54167H3.54169H3.54172H3.54174H3.54177H3.54179H3.54182H3.54184H3.54187H3.54189H3.54192H3.54194H3.54197H3.54199H7.70807M3.52412 7.68751H7.70807M3.54258 6.23751H7.70866H7.70868H7.70871H7.70873H7.70876H7.70878H7.70881H7.70883H7.70886H7.70888H7.70891H7.70893H7.70896H7.70898H7.70901H7.70904H7.70906H7.70909H7.70911H7.70914H7.70917H7.70919H7.70922H7.70925H7.70927H7.7093H7.70932H7.70935H7.70938H7.70941H7.70943H7.70946H7.70949H7.70951H7.70954H7.70957H7.7096H7.70962H7.70965H7.70968H7.70971H7.70974H7.70976H7.70979H7.70982H7.70985H7.70988H7.70991H7.70993H7.70996H7.70999H7.71002H7.71005H7.71008H7.71011H7.71014H7.71017H7.71019H7.71022H7.71025H7.71028H7.71031H7.71034H7.71037H7.7104H7.71043H7.71046H7.71049H7.71052H7.71055H7.71058H7.71061H7.71064H7.71067H7.7107H7.71073H7.71076H7.71079H7.71082H7.71086H7.71089H7.71092H7.71095H7.71098H7.71101H7.71104H7.71107H7.7111H7.71113H7.71117H7.7112H7.71123H7.71126H7.71129H7.71132H7.71136H7.71139H7.71142H7.71145H7.71148H7.71152H7.71155H7.71158H7.71161H7.71164H7.71168H7.71171H7.71174H7.71177H7.71181H7.71184H7.71187H7.7119H7.71194H7.71197H7.712H7.71204H7.71207H7.7121H7.71213H7.71217H7.7122H7.71223H7.71227H7.7123H7.71233H7.71237H7.7124H7.71244H7.71247H7.7125H7.71254H7.71257H7.7126H7.71264H7.71267H7.71271H7.71274H7.71277H7.71281H7.71284H7.71288H7.71291H7.71294H7.71298H7.71301H7.71305H7.71308H7.71312H7.71315H7.71318H7.71322H7.71325H7.71329H7.71332H7.71336H7.71339H7.71343H7.71346H7.7135H7.71353H7.71357H7.7136H7.71364H7.71367H7.71371H7.71374H7.71378H7.71381H7.71385H7.71388H7.71392H7.71395H7.71399H7.71402H7.71406H7.71409H7.71413H7.71417H7.7142H7.71424H7.71427H7.71431H7.71434H7.71438H7.71441H7.71445H7.71449H7.71452H7.71456H7.71459H7.71463H7.71466H7.7147H7.71474H7.71477H7.71481H7.71484H7.71488H7.71492H7.71495H7.71499H7.71502H7.71506H7.7151H7.71513H7.71517H7.71521H7.71524H7.71528H7.71531H7.71535H7.71539H7.71542H7.71546H7.7155H7.71553H7.71557H7.7156H7.71564H7.71568H7.71571H7.71575H7.71579H7.71582H7.71586H7.7159H7.71593H7.71597H7.716H7.71604H7.71608H7.71611H7.71615H7.71619H7.71622H7.71626H7.7163H7.71633H7.71637H7.71641H7.71644H7.71648H7.71652H7.71655H7.71659H7.71663H7.71666H7.7167H7.71674H7.71677H7.71681H7.71685H7.71688H7.71692H7.71696H7.71699H7.71703H7.71707H7.7171H7.71714H7.71718H7.71721H7.71725H7.71729H7.71732H7.71736H7.7174H7.71743H7.71747H7.7175H7.71754H7.71758H7.71761H7.71765H7.71769H7.71772H7.71776H7.7178H7.71783H7.71787H7.71791H7.71794H7.71798H7.71802H7.71805H7.71809H7.71813H7.71816H7.7182H7.71824H7.71827H7.71831H7.71834H7.71838H7.71842H7.71845H7.71849H7.71853H7.71856H7.7186H7.71863H7.71867H7.71871H7.71874H7.71878H7.71882H7.71885H7.71889H7.71892H7.71896H7.719H7.71903H7.71907H7.7191H7.71914H7.71918H7.71921H7.71925H7.71928H7.71932H7.71936H7.71939H7.71943H7.71946H7.7195H7.71953H7.71957H7.71961H7.71964H7.71968H7.71971H7.71975H7.71978H7.71982H7.71985H7.71989H7.71993H7.71996H7.72H7.72003H7.72007H7.7201H7.72014H7.72017H7.72021H7.72024H7.72028H7.72031H7.72035H7.72038H7.72042H7.72045H7.72049H7.72052H7.72056H7.72059H7.72063H7.72066H7.7207H7.72073H7.72077H7.7208H7.72083H7.72087H7.7209H7.72094H7.72097H7.72101H7.72104H7.72108H7.72111H7.72114H7.72118H7.72121H7.72125H7.72128H7.72131H7.72135H7.72138H7.72142H7.72145H7.72148H7.72152H7.72155H7.72158H7.72162H7.72165H7.72168H7.72172H7.72175H7.72178H7.72182H7.72185H7.72188H7.72192H7.72195H7.72198H7.72201H7.72205H7.72208H7.72211H7.72215H7.72218H7.72221H7.72224H7.72228H7.72231H7.72234H7.72237H7.7224H7.72244H7.72247H7.7225H7.72253H7.72257H7.7226H7.72263H7.72266H7.72269H7.72272H7.72276H7.72279H7.72282H7.72285H7.72288H7.72291H7.72294H7.72298H7.72301H7.72304H7.72307H7.7231H7.72313H7.72316H7.72319H7.72322H7.72325H7.72328H7.72331H7.72334H7.72337H7.7234H7.72343H7.72346H7.72349H7.72352H7.72355H7.72358H7.72361H7.72364H7.72367H7.7237H7.72373H7.72376H7.72379H7.72382H7.72385H7.72388H7.72391H7.72394H7.72396H7.72399H7.72402H7.72405H7.72408H7.72411H7.72414H7.72416H7.72419H7.72422H7.72425H7.72428H7.7243H7.72433H7.72436H7.72439H7.72442H7.72444H7.72447H7.7245H7.72452H7.72455H7.72458H7.72461H7.72463H7.72466H7.72469H7.72471H7.72474H7.72477H7.72479H7.72482H7.72484H7.72487H7.7249H7.72492H7.72495H7.72497H7.725H7.72503H7.72505H7.72508H7.7251H7.72513H7.72515H7.72518H7.7252H7.72523H7.72525H7.72528H7.7253H7.72533H7.72653V6.23751C8.12792 6.24235 8.44681 6.57132 8.44199 6.97204C8.43715 7.37323 8.10851 7.692 7.70807 7.68751M3.54258 6.23751L7.70807 7.68751M7.70807 7.68751C7.70786 7.6875 7.70766 7.6875 7.70745 7.6875L7.70866 7.58751V7.68751H7.70807ZM3.81721 9.77084H6.98366V10.7125C6.98366 11.7969 7.87426 12.6875 8.95866 12.6875H11.042C11.8363 12.6875 12.6216 12.3098 13.12 11.5903C13.6153 10.8754 13.8503 9.89405 13.8503 8.62917C13.8503 8.31003 13.832 7.99408 13.8053 7.68281C14.1887 8.67117 14.4837 9.80172 14.4837 11.1292C14.4837 11.5302 14.8076 11.8542 15.2087 11.8542C16.0113 11.8542 16.4731 12.3302 16.7392 12.6958H15.0753C14.0102 12.6958 13.4675 13.2657 13.1835 13.6417H8.00033C6.69495 13.6417 5.52508 13.1265 4.64219 12.5701C3.81655 12.0497 3.24816 11.4972 3.06299 11.3095C3.169 10.357 3.65053 9.90121 3.81721 9.77084ZM4.03609 13.9184C4.52774 14.212 5.09158 14.4826 5.70232 14.6919C5.60341 15.1065 5.23784 15.4083 4.79199 15.4083C4.26389 15.4083 3.85033 14.9948 3.85033 14.4667C3.85033 14.2579 3.92125 14.0738 4.03609 13.9184ZM15.0753 14.15H16.0882C16.1273 14.2503 16.1503 14.3524 16.1503 14.4667C16.1503 14.9948 15.7368 15.4083 15.2087 15.4083C14.6939 15.4083 14.3203 15.0419 14.2739 14.5565C14.4148 14.3843 14.6777 14.15 15.0753 14.15Z" fill="#7FA65F" stroke="#7FA65F" stroke-width="0.2"/>
</svg>
