<svg width="20" height="20" viewBox="0 0 20 20" fill="none" xmlns="http://www.w3.org/2000/svg">
<path d="M5.20833 2.5C3.72003 2.5 2.5 3.72003 2.5 5.20833V14.7917C2.5 16.28 3.72003 17.5 5.20833 17.5H14.7917C16.28 17.5 17.5 16.28 17.5 14.7917V5.20833C17.5 3.72003 16.28 2.5 14.7917 2.5H5.20833ZM5.20833 3.75H14.7917C15.6042 3.75 16.25 4.39581 16.25 5.20833V5.83333H3.75V5.20833C3.75 4.39581 4.39581 3.75 5.20833 3.75ZM3.75 7.08333H16.25V14.7917C16.25 15.6042 15.6042 16.25 14.7917 16.25H5.20833C4.39581 16.25 3.75 15.6042 3.75 14.7917V7.08333ZM6.45833 8.75C6.18207 8.75 5.91711 8.85975 5.72176 9.0551C5.52641 9.25045 5.41667 9.5154 5.41667 9.79167C5.41667 10.0679 5.52641 10.3329 5.72176 10.5282C5.91711 10.7236 6.18207 10.8333 6.45833 10.8333C6.7346 10.8333 6.99955 10.7236 7.1949 10.5282C7.39025 10.3329 7.5 10.0679 7.5 9.79167C7.5 9.5154 7.39025 9.25045 7.1949 9.0551C6.99955 8.85975 6.7346 8.75 6.45833 8.75ZM10 8.75C9.72373 8.75 9.45878 8.85975 9.26343 9.0551C9.06808 9.25045 8.95833 9.5154 8.95833 9.79167C8.95833 10.0679 9.06808 10.3329 9.26343 10.5282C9.45878 10.7236 9.72373 10.8333 10 10.8333C10.2763 10.8333 10.5412 10.7236 10.7366 10.5282C10.9319 10.3329 11.0417 10.0679 11.0417 9.79167C11.0417 9.5154 10.9319 9.25045 10.7366 9.0551C10.5412 8.85975 10.2763 8.75 10 8.75ZM13.5417 8.75C13.2654 8.75 13.0004 8.85975 12.8051 9.0551C12.6097 9.25045 12.5 9.5154 12.5 9.79167C12.5 10.0679 12.6097 10.3329 12.8051 10.5282C13.0004 10.7236 13.2654 10.8333 13.5417 10.8333C13.8179 10.8333 14.0829 10.7236 14.2782 10.5282C14.4736 10.3329 14.5833 10.0679 14.5833 9.79167C14.5833 9.5154 14.4736 9.25045 14.2782 9.0551C14.0829 8.85975 13.8179 8.75 13.5417 8.75ZM6.45833 12.5C6.18207 12.5 5.91711 12.6097 5.72176 12.8051C5.52641 13.0004 5.41667 13.2654 5.41667 13.5417C5.41667 13.8179 5.52641 14.0829 5.72176 14.2782C5.91711 14.4736 6.18207 14.5833 6.45833 14.5833C6.7346 14.5833 6.99955 14.4736 7.1949 14.2782C7.39025 14.0829 7.5 13.8179 7.5 13.5417C7.5 13.2654 7.39025 13.0004 7.1949 12.8051C6.99955 12.6097 6.7346 12.5 6.45833 12.5ZM10 12.5C9.72373 12.5 9.45878 12.6097 9.26343 12.8051C9.06808 13.0004 8.95833 13.2654 8.95833 13.5417C8.95833 13.8179 9.06808 14.0829 9.26343 14.2782C9.45878 14.4736 9.72373 14.5833 10 14.5833C10.2763 14.5833 10.5412 14.4736 10.7366 14.2782C10.9319 14.0829 11.0417 13.8179 11.0417 13.5417C11.0417 13.2654 10.9319 13.0004 10.7366 12.8051C10.5412 12.6097 10.2763 12.5 10 12.5Z" fill="#939393"/>
<path fill-rule="evenodd" clip-rule="evenodd" d="M2.25 5.20833C2.25 3.58195 3.58195 2.25 5.20833 2.25H14.7917C16.418 2.25 17.75 3.58195 17.75 5.20833V14.7917C17.75 16.418 16.418 17.75 14.7917 17.75H5.20833C3.58195 17.75 2.25 16.418 2.25 14.7917V5.20833ZM14.7917 4H5.20833C4.53388 4 4 4.53388 4 5.20833V5.58333H16V5.20833C16 4.53388 15.4661 4 14.7917 4ZM16 7.33333H4V14.7917C4 15.4661 4.53388 16 5.20833 16H14.7917C15.4661 16 16 15.4661 16 14.7917V7.33333ZM5.54499 8.87832C5.78722 8.63609 6.11576 8.5 6.45833 8.5C6.8009 8.5 7.12945 8.63609 7.37168 8.87832C7.61391 9.12055 7.75 9.4491 7.75 9.79167C7.75 10.1342 7.61391 10.4628 7.37168 10.705C7.12945 10.9472 6.8009 11.0833 6.45833 11.0833C6.11576 11.0833 5.78722 10.9472 5.54499 10.705C5.30275 10.4628 5.16667 10.1342 5.16667 9.79167C5.16667 9.4491 5.30275 9.12055 5.54499 8.87832ZM9.08665 8.87832C9.32889 8.63609 9.65743 8.5 10 8.5C10.3426 8.5 10.6711 8.63609 10.9133 8.87832C11.1556 9.12055 11.2917 9.4491 11.2917 9.79167C11.2917 10.1342 11.1556 10.4628 10.9133 10.705C10.6711 10.9472 10.3426 11.0833 10 11.0833C9.65743 11.0833 9.32889 10.9472 9.08665 10.705C8.84442 10.4628 8.70833 10.1342 8.70833 9.79167C8.70833 9.4491 8.84442 9.12055 9.08665 8.87832ZM12.6283 8.87832C12.8706 8.63609 13.1991 8.5 13.5417 8.5C13.8842 8.5 14.2128 8.63609 14.455 8.87832C14.6972 9.12056 14.8333 9.4491 14.8333 9.79167C14.8333 10.1342 14.6972 10.4628 14.455 10.705C14.2128 10.9472 13.8842 11.0833 13.5417 11.0833C13.1991 11.0833 12.8706 10.9472 12.6283 10.705C12.3861 10.4628 12.25 10.1342 12.25 9.79167C12.25 9.4491 12.3861 9.12055 12.6283 8.87832ZM5.54499 12.6283C5.78722 12.3861 6.11576 12.25 6.45833 12.25C6.8009 12.25 7.12945 12.3861 7.37168 12.6283C7.61391 12.8706 7.75 13.1991 7.75 13.5417C7.75 13.8842 7.61391 14.2128 7.37168 14.455C7.12944 14.6972 6.8009 14.8333 6.45833 14.8333C6.11576 14.8333 5.78722 14.6972 5.54499 14.455C5.30275 14.2128 5.16667 13.8842 5.16667 13.5417C5.16667 13.1991 5.30275 12.8706 5.54499 12.6283ZM9.08665 12.6283C9.32889 12.3861 9.65743 12.25 10 12.25C10.3426 12.25 10.6711 12.3861 10.9133 12.6283C11.1556 12.8706 11.2917 13.1991 11.2917 13.5417C11.2917 13.8842 11.1556 14.2128 10.9133 14.455C10.6711 14.6972 10.3426 14.8333 10 14.8333C9.65743 14.8333 9.32889 14.6972 9.08665 14.455C8.84442 14.2128 8.70833 13.8842 8.70833 13.5417C8.70833 13.1991 8.84442 12.8706 9.08665 12.6283ZM2.5 5.20833C2.5 3.72003 3.72003 2.5 5.20833 2.5H14.7917C16.28 2.5 17.5 3.72003 17.5 5.20833V14.7917C17.5 16.28 16.28 17.5 14.7917 17.5H5.20833C3.72003 17.5 2.5 16.28 2.5 14.7917V5.20833ZM14.7917 3.75H5.20833C4.39581 3.75 3.75 4.39581 3.75 5.20833V5.83333H16.25V5.20833C16.25 4.39581 15.6042 3.75 14.7917 3.75ZM3.75 7.08333V14.7917C3.75 15.6042 4.39581 16.25 5.20833 16.25H14.7917C15.6042 16.25 16.25 15.6042 16.25 14.7917V7.08333H3.75ZM5.72176 9.0551C5.91711 8.85975 6.18207 8.75 6.45833 8.75C6.7346 8.75 6.99955 8.85975 7.1949 9.0551C7.39025 9.25045 7.5 9.5154 7.5 9.79167C7.5 10.0679 7.39025 10.3329 7.1949 10.5282C6.99955 10.7236 6.7346 10.8333 6.45833 10.8333C6.18207 10.8333 5.91711 10.7236 5.72176 10.5282C5.52641 10.3329 5.41667 10.0679 5.41667 9.79167C5.41667 9.5154 5.52641 9.25045 5.72176 9.0551ZM9.26343 9.0551C9.45878 8.85975 9.72373 8.75 10 8.75C10.2763 8.75 10.5412 8.85975 10.7366 9.0551C10.9319 9.25045 11.0417 9.5154 11.0417 9.79167C11.0417 10.0679 10.9319 10.3329 10.7366 10.5282C10.5412 10.7236 10.2763 10.8333 10 10.8333C9.72373 10.8333 9.45878 10.7236 9.26343 10.5282C9.06808 10.3329 8.95833 10.0679 8.95833 9.79167C8.95833 9.5154 9.06808 9.25045 9.26343 9.0551ZM12.8051 9.0551C13.0004 8.85975 13.2654 8.75 13.5417 8.75C13.8179 8.75 14.0829 8.85975 14.2782 9.0551C14.4736 9.25045 14.5833 9.5154 14.5833 9.79167C14.5833 10.0679 14.4736 10.3329 14.2782 10.5282C14.0829 10.7236 13.8179 10.8333 13.5417 10.8333C13.2654 10.8333 13.0004 10.7236 12.8051 10.5282C12.6097 10.3329 12.5 10.0679 12.5 9.79167C12.5 9.5154 12.6097 9.25045 12.8051 9.0551ZM5.72176 12.8051C5.91711 12.6097 6.18207 12.5 6.45833 12.5C6.7346 12.5 6.99955 12.6097 7.1949 12.8051C7.39025 13.0004 7.5 13.2654 7.5 13.5417C7.5 13.8179 7.39025 14.0829 7.1949 14.2782C6.99955 14.4736 6.7346 14.5833 6.45833 14.5833C6.18207 14.5833 5.91711 14.4736 5.72176 14.2782C5.52641 14.0829 5.41667 13.8179 5.41667 13.5417C5.41667 13.2654 5.52641 13.0004 5.72176 12.8051ZM9.26343 12.8051C9.45878 12.6097 9.72373 12.5 10 12.5C10.2763 12.5 10.5412 12.6097 10.7366 12.8051C10.9319 13.0004 11.0417 13.2654 11.0417 13.5417C11.0417 13.8179 10.9319 14.0829 10.7366 14.2782C10.5412 14.4736 10.2763 14.5833 10 14.5833C9.72373 14.5833 9.45878 14.4736 9.26343 14.2782C9.06808 14.0829 8.95833 13.8179 8.95833 13.5417C8.95833 13.2654 9.06808 13.0004 9.26343 12.8051Z" fill="#939393"/>
</svg>
