<svg width="20" height="20" viewBox="0 0 20 20" fill="none" xmlns="http://www.w3.org/2000/svg">
<path d="M13.5974 10.5783L13.5976 10.5786C13.8342 10.9945 13.95 11.4765 13.95 12.0169C13.95 12.8816 13.6578 13.5939 13.0666 14.1328C12.5125 14.6386 11.7585 14.9384 10.8244 15.0497V15.625C10.8244 16.0805 10.4548 16.45 9.99938 16.45C9.54366 16.45 9.175 16.0802 9.175 15.625V15.036C8.25814 14.9207 7.44072 14.6016 6.88159 14.0513L6.88139 14.0511C6.57528 13.749 6.33074 13.3747 6.17972 12.962C6.17971 12.9619 6.17969 12.9619 6.17968 12.9618L6.3675 12.8931C6.34 12.8181 6.25 12.5631 6.25 12.3831C6.25 11.9731 6.5825 11.6406 6.99187 11.6419L13.5974 10.5783ZM13.5974 10.5783C13.3601 10.163 12.9951 9.80639 12.5148 9.50605C12.0336 9.20489 11.3748 8.93556 10.5474 8.69366L10.5472 8.69362M13.5974 10.5783L10.5472 8.69362M10.5472 8.69362C9.73608 8.45709 9.17951 8.20057 8.85444 7.93358L8.85399 7.9332M10.5472 8.69362L8.85399 7.9332M8.85399 7.9332C8.54661 7.68225 8.39125 7.34787 8.39125 6.91C8.39125 6.42487 8.54373 6.06922 8.83119 5.81729L8.83149 5.81703M8.85399 7.9332L8.83149 5.81703M8.83149 5.81703C9.12025 5.56296 9.55449 5.42125 10.165 5.42125C10.7287 5.42125 11.1581 5.60373 11.474 5.95707L11.4742 5.9573M8.83149 5.81703L11.4742 5.9573M11.4742 5.9573C11.6247 6.12502 11.7405 6.32098 11.8223 6.54744C11.8423 6.6034 11.8718 6.70079 11.8981 6.79042C11.9078 6.8234 11.9177 6.85785 11.9263 6.88777C11.9373 6.92597 11.9462 6.95679 11.9497 6.96771L11.9497 6.96772C12.0189 7.17491 12.119 7.35979 12.2705 7.4933C12.4264 7.63078 12.6211 7.7 12.8494 7.7C13.0953 7.7 13.3319 7.62186 13.509 7.45675C13.6884 7.28956 13.7894 7.0491 13.7894 6.76C13.7894 6.64675 13.7658 6.53314 13.754 6.47715M11.4742 5.9573L13.0411 4.98008M13.0411 4.98008L13.0412 4.98018C13.3999 5.38674 13.6355 5.88799 13.754 6.47715M13.0411 4.98008C12.5337 4.40575 11.8419 4.05469 10.9813 3.9182M13.0411 4.98008L10.9813 3.9182M13.754 6.47715C13.7541 6.47747 13.7541 6.47779 13.7542 6.47811L13.5581 6.5175L13.7538 6.47619C13.7539 6.47651 13.7539 6.47683 13.754 6.47715ZM10.9813 3.9182V3.125C10.9813 2.66954 10.6117 2.3 10.1563 2.3C9.70079 2.3 9.33125 2.66954 9.33125 3.125V3.9196C8.50923 4.04463 7.83541 4.34804 7.33009 4.84707L7.33007 4.84709C6.77508 5.39532 6.50063 6.09716 6.50063 6.93625C6.50063 7.76333 6.78173 8.45733 7.34752 9.00219L7.34761 9.00227C7.90565 9.53901 8.77553 9.95969 9.93232 10.2773C10.745 10.5209 11.2944 10.7857 11.6081 11.0603C11.9125 11.3286 12.0594 11.6485 12.0594 12.0319C12.0594 12.4983 11.8846 12.853 11.5346 13.1171C11.1775 13.3862 10.672 13.5325 9.995 13.5325C9.30148 13.5325 8.72591 13.3572 8.38569 13.0431L8.38555 13.0429C8.15465 12.8301 7.99901 12.5543 7.92074 12.2067L10.9813 3.9182Z" fill="#7FA65F" stroke="#7FA65F" stroke-width="0.4"/>
</svg>
