<svg width="20" height="20" viewBox="0 0 20 20" fill="none" xmlns="http://www.w3.org/2000/svg">
<path d="M9.99967 1.66663C7.70589 1.66663 5.83301 3.53951 5.83301 5.83329C5.83301 7.91417 7.37603 9.64382 9.37467 9.94788V17.7083C9.3735 17.7911 9.3888 17.8733 9.41969 17.9502C9.45057 18.0271 9.49642 18.097 9.55457 18.156C9.61273 18.215 9.68202 18.2618 9.75843 18.2938C9.83484 18.3257 9.91685 18.3422 9.99967 18.3422C10.0825 18.3422 10.1645 18.3257 10.2409 18.2938C10.3173 18.2618 10.3866 18.215 10.4448 18.156C10.5029 18.097 10.5488 18.0271 10.5797 17.9502C10.6105 17.8733 10.6258 17.7911 10.6247 17.7083V9.94788C12.6233 9.64382 14.1663 7.91417 14.1663 5.83329C14.1663 3.53951 12.2935 1.66663 9.99967 1.66663ZM9.99967 2.91663C11.6179 2.91663 12.9163 4.21506 12.9163 5.83329C12.9163 7.42625 11.6574 8.70701 10.0745 8.7467C10.0465 8.74289 10.0182 8.74099 9.98991 8.74101C9.96705 8.74138 9.94423 8.74301 9.92155 8.74589C8.34022 8.70449 7.08301 7.42514 7.08301 5.83329C7.08301 4.21506 8.38144 2.91663 9.99967 2.91663ZM8.95801 4.16663C8.79225 4.16663 8.63328 4.23247 8.51607 4.34968C8.39886 4.46689 8.33301 4.62587 8.33301 4.79163C8.33301 4.95739 8.39886 5.11636 8.51607 5.23357C8.63328 5.35078 8.79225 5.41663 8.95801 5.41663C9.12377 5.41663 9.28274 5.35078 9.39995 5.23357C9.51716 5.11636 9.58301 4.95739 9.58301 4.79163C9.58301 4.62587 9.51716 4.46689 9.39995 4.34968C9.28274 4.23247 9.12377 4.16663 8.95801 4.16663Z" fill="#7FA65F"/>
<path fill-rule="evenodd" clip-rule="evenodd" d="M9.98991 8.74101C10.0182 8.74099 10.0465 8.74289 10.0745 8.7467C11.6574 8.70701 12.9163 7.42625 12.9163 5.83329C12.9163 4.21506 11.6179 2.91663 9.99967 2.91663C8.38144 2.91663 7.08301 4.21506 7.08301 5.83329C7.08301 7.42514 8.34022 8.70449 9.92155 8.74589C9.94423 8.74301 9.96705 8.74138 9.98991 8.74101ZM9.91104 8.49548C8.47253 8.4489 7.33301 7.2832 7.33301 5.83329C7.33301 4.35313 8.51951 3.16663 9.99967 3.16663C11.4798 3.16663 12.6663 4.35313 12.6663 5.83329C12.6663 7.28401 11.5257 8.45079 10.0862 8.49628C10.0542 8.49274 10.022 8.49099 9.98973 8.49101V8.49098L9.9858 8.49104C9.96082 8.49145 9.93588 8.49293 9.91104 8.49548ZM5.58301 5.83329C5.58301 3.40144 7.56782 1.41663 9.99967 1.41663C12.4315 1.41663 14.4163 3.40144 14.4163 5.83329C14.4163 7.96603 12.8888 9.7489 10.8747 10.1574V17.7067C10.8761 17.822 10.8546 17.9364 10.8116 18.0434C10.7684 18.151 10.7042 18.2489 10.6228 18.3315C10.5414 18.4141 10.4444 18.4796 10.3374 18.5244C10.2304 18.5691 10.1156 18.5922 9.99967 18.5922C9.88372 18.5922 9.76892 18.5691 9.66195 18.5244C9.55497 18.4796 9.45796 18.4141 9.37655 18.3315C9.29514 18.2489 9.23095 18.151 9.18772 18.0434C9.14472 17.9364 9.1233 17.822 9.12467 17.7067V10.1574C7.11057 9.7489 5.58301 7.96603 5.58301 5.83329ZM9.37467 9.94788C7.37603 9.64382 5.83301 7.91417 5.83301 5.83329C5.83301 3.53951 7.70589 1.66663 9.99967 1.66663C12.2935 1.66663 14.1663 3.53951 14.1663 5.83329C14.1663 7.91417 12.6233 9.64382 10.6247 9.94788V17.7083C10.6258 17.7911 10.6105 17.8733 10.5797 17.9502C10.5488 18.0271 10.5029 18.097 10.4448 18.156C10.3866 18.215 10.3173 18.2618 10.2409 18.2938C10.1645 18.3257 10.0825 18.3422 9.99967 18.3422C9.91685 18.3422 9.83484 18.3257 9.75843 18.2938C9.68202 18.2618 9.61273 18.215 9.55458 18.156C9.49642 18.097 9.45057 18.0271 9.41969 17.9502C9.3888 17.8733 9.3735 17.7911 9.37467 17.7083V9.94788ZM8.33929 4.17291C8.50338 4.00881 8.72594 3.91663 8.95801 3.91663C9.19007 3.91663 9.41263 4.00881 9.57673 4.17291C9.74082 4.337 9.83301 4.55956 9.83301 4.79163C9.83301 5.02369 9.74082 5.24625 9.57673 5.41034C9.41263 5.57444 9.19007 5.66663 8.95801 5.66663C8.72594 5.66663 8.50338 5.57444 8.33929 5.41034C8.1752 5.24625 8.08301 5.02369 8.08301 4.79163C8.08301 4.55956 8.1752 4.337 8.33929 4.17291ZM8.51607 4.34968C8.63328 4.23247 8.79225 4.16663 8.95801 4.16663C9.12377 4.16663 9.28274 4.23247 9.39995 4.34968C9.51716 4.46689 9.58301 4.62587 9.58301 4.79163C9.58301 4.95739 9.51716 5.11636 9.39995 5.23357C9.28274 5.35078 9.12377 5.41663 8.95801 5.41663C8.79225 5.41663 8.63328 5.35078 8.51607 5.23357C8.39886 5.11636 8.33301 4.95739 8.33301 4.79163C8.33301 4.62587 8.39886 4.46689 8.51607 4.34968Z" fill="#7FA65F"/>
<path fill-rule="evenodd" clip-rule="evenodd" d="M9.99056 8.74105C10.0189 8.74103 10.0471 8.74293 10.0752 8.74674C11.6581 8.70705 12.917 7.42629 12.917 5.83333C12.917 4.2151 11.6186 2.91667 10.0003 2.91667C8.38209 2.91667 7.08366 4.2151 7.08366 5.83333C7.08366 7.42518 8.34087 8.70453 9.9222 8.74593C9.94488 8.74305 9.9677 8.74142 9.99056 8.74105ZM9.91478 8.57899C8.42885 8.53392 7.25033 7.33042 7.25033 5.83333C7.25033 4.30715 8.47414 3.08333 10.0003 3.08333C11.5265 3.08333 12.7503 4.30715 12.7503 5.83333C12.7503 7.33133 11.5705 8.53602 10.0834 8.57979C10.0525 8.57617 10.0215 8.57436 9.99044 8.57436L9.98782 8.5744C9.96341 8.57481 9.93904 8.57634 9.91478 8.57899ZM5.66699 5.83333C5.66699 3.4475 7.61449 1.5 10.0003 1.5C12.3862 1.5 14.3337 3.4475 14.3337 5.83333C14.3337 7.94893 12.8011 9.71421 10.792 10.0887V17.7072C10.7933 17.8117 10.7739 17.9154 10.735 18.0124C10.6958 18.1097 10.6378 18.1983 10.5641 18.273C10.4904 18.3477 10.4027 18.4071 10.3059 18.4476C10.2091 18.4881 10.1052 18.5089 10.0003 18.5089C9.89541 18.5089 9.79154 18.4881 9.69476 18.4476C9.59797 18.4071 9.5102 18.3477 9.43654 18.273C9.36289 18.1983 9.30481 18.1097 9.26569 18.0124C9.22673 17.9154 9.20735 17.8117 9.20866 17.7072V10.0887C7.1995 9.71421 5.66699 7.94893 5.66699 5.83333ZM9.37533 9.94792C7.37668 9.64386 5.83366 7.91421 5.83366 5.83333C5.83366 3.53955 7.70654 1.66667 10.0003 1.66667C12.2941 1.66667 14.167 3.53955 14.167 5.83333C14.167 7.91421 12.624 9.64386 10.6253 9.94792V17.7083C10.6265 17.7912 10.6112 17.8734 10.5803 17.9502C10.5494 18.0271 10.5036 18.097 10.4454 18.156C10.3873 18.215 10.318 18.2618 10.2416 18.2938C10.1652 18.3258 10.0832 18.3422 10.0003 18.3422C9.9175 18.3422 9.83549 18.3258 9.75908 18.2938C9.68267 18.2618 9.61338 18.215 9.55523 18.156C9.49707 18.097 9.45122 18.0271 9.42034 17.9502C9.38946 17.8734 9.37415 17.7912 9.37533 17.7083V9.94792ZM8.39887 4.23187C8.54733 4.08341 8.7487 4 8.95866 4C9.16862 4 9.36998 4.08341 9.51845 4.23187C9.66692 4.38034 9.75033 4.5817 9.75033 4.79167C9.75033 5.00163 9.66692 5.20299 9.51845 5.35146C9.36998 5.49993 9.16862 5.58333 8.95866 5.58333C8.7487 5.58333 8.54733 5.49993 8.39887 5.35146C8.2504 5.20299 8.16699 5.00163 8.16699 4.79167C8.16699 4.5817 8.2504 4.38034 8.39887 4.23187ZM8.51672 4.34972C8.63393 4.23251 8.7929 4.16667 8.95866 4.16667C9.12442 4.16667 9.28339 4.23251 9.4006 4.34972C9.51781 4.46693 9.58366 4.62591 9.58366 4.79167C9.58366 4.95743 9.51781 5.1164 9.4006 5.23361C9.28339 5.35082 9.12442 5.41667 8.95866 5.41667C8.7929 5.41667 8.63393 5.35082 8.51672 5.23361C8.39951 5.1164 8.33366 4.95743 8.33366 4.79167C8.33366 4.62591 8.39951 4.46693 8.51672 4.34972Z" fill="#7FA65F"/>
</svg>
