<svg width="10" height="15" viewBox="0 0 10 15" fill="none" xmlns="http://www.w3.org/2000/svg">
<path d="M8.5974 8.57827L8.59759 8.57861C8.83416 8.99448 8.95 9.4765 8.95 10.0169C8.95 10.8816 8.65775 11.5939 8.06662 12.1328C7.51249 12.6386 6.75853 12.9384 5.82438 13.0497V13.625C5.82438 14.0805 5.45483 14.45 4.99938 14.45C4.54366 14.45 4.175 14.0802 4.175 13.625V13.036C3.25814 12.9207 2.44072 12.6016 1.88159 12.0513L1.88139 12.0511C1.57528 11.749 1.33074 11.3747 1.17972 10.962C1.17971 10.9619 1.17969 10.9619 1.17968 10.9618L1.3675 10.8931C1.34 10.8181 1.25 10.5631 1.25 10.3831C1.25 9.97313 1.5825 9.64063 1.99187 9.64188L8.5974 8.57827ZM8.5974 8.57827C8.36011 8.16302 7.99507 7.80639 7.51479 7.50605C7.03357 7.20489 6.37475 6.93556 5.54737 6.69366L5.54724 6.69362M8.5974 8.57827L5.54724 6.69362M5.54724 6.69362C4.73608 6.45709 4.17951 6.20057 3.85444 5.93358L3.85399 5.9332M5.54724 6.69362L3.85399 5.9332M3.85399 5.9332C3.54661 5.68225 3.39125 5.34787 3.39125 4.91C3.39125 4.42487 3.54373 4.06922 3.83119 3.81729L3.83149 3.81703M3.85399 5.9332L3.83149 3.81703M3.83149 3.81703C4.12025 3.56296 4.55449 3.42125 5.165 3.42125C5.7287 3.42125 6.15807 3.60373 6.47404 3.95707L6.47425 3.9573M3.83149 3.81703L6.47425 3.9573M6.47425 3.9573C6.62469 4.12502 6.74055 4.32098 6.82234 4.54744C6.84229 4.6034 6.8718 4.70079 6.89808 4.79042C6.90775 4.8234 6.91769 4.85785 6.92631 4.88777C6.93733 4.92597 6.94621 4.95679 6.9497 4.96771L6.94967 4.96772C7.01885 5.17491 7.11904 5.35979 7.27047 5.4933C7.4264 5.63078 7.62106 5.7 7.84938 5.7C8.09526 5.7 8.33195 5.62186 8.50904 5.45675C8.68838 5.28956 8.78938 5.0491 8.78938 4.76C8.78938 4.64675 8.76583 4.53314 8.75402 4.47715M6.47425 3.9573L8.04113 2.98008M8.04113 2.98008L8.04122 2.98018C8.39991 3.38674 8.63551 3.88799 8.75402 4.47715M8.04113 2.98008C7.5337 2.40575 6.84192 2.05469 5.98125 1.9182M8.04113 2.98008L5.98125 1.9182M8.75402 4.47715C8.75408 4.47747 8.75414 4.47779 8.75421 4.47811L8.55813 4.5175L8.75381 4.47619C8.75388 4.47651 8.75395 4.47683 8.75402 4.47715ZM5.98125 1.9182V1.125C5.98125 0.669543 5.61171 0.3 5.15625 0.3C4.70079 0.3 4.33125 0.669543 4.33125 1.125V1.9196C3.50923 2.04463 2.83541 2.34804 2.33009 2.84707L2.33007 2.84709C1.77508 3.39532 1.50063 4.09716 1.50063 4.93625C1.50063 5.76333 1.78173 6.45733 2.34752 7.00219L2.34761 7.00227C2.90565 7.53901 3.77553 7.95969 4.93232 8.27725C5.74497 8.52092 6.2944 8.78571 6.6081 9.06034C6.91255 9.32857 7.05938 9.64847 7.05938 10.0319C7.05938 10.4983 6.88462 10.853 6.53464 11.1171C6.17753 11.3862 5.67204 11.5325 4.995 11.5325C4.30148 11.5325 3.72591 11.3572 3.38569 11.0431L3.38555 11.0429C3.15465 10.8301 2.99901 10.5543 2.92074 10.2067L5.98125 1.9182Z" fill="#7FA65F" stroke="#7FA65F" stroke-width="0.4"/>
</svg>
